# This file uses centimeters as units for non-parametric coordinates.

mtllib portrait the premier.mtl
g default
v -0.334905 -0.309485 -0.313436
v -0.337301 -0.313924 -0.657801
v -0.360433 -0.312174 -0.656989
v -0.360908 -0.341930 -0.656602
v -0.358047 -0.307753 -0.313970
v -0.358521 -0.337509 -0.313584
v -0.346914 -0.336315 -0.313007
v -0.335162 -0.325652 -0.313226
v -0.349310 -0.340754 -0.657371
v -0.337558 -0.330090 -0.657591
vt 0.375000 0.250000
vt 0.625000 0.500000
vt 0.375000 0.750000
vt 0.125000 0.000000
vt 0.125000 0.250000
vt 0.625000 0.750000
vt 0.625000 0.875013
vt 0.524605 1.000000
vt 0.375000 1.000000
vt 0.625000 0.374988
vt 0.375000 0.500000
vt 0.375000 0.000000
vt 0.524605 0.000000
vt 0.749988 0.250000
vt 0.875000 0.000000
vt 0.875000 0.250000
vt 0.749987 0.000000
vt 0.524605 0.250000
vn 0.999849 -0.016019 -0.006750
vn 0.999849 -0.016019 -0.006750
vn 0.999849 -0.016019 -0.006750
vn 0.999849 -0.016019 -0.006750
vn -0.039389 -0.005723 -0.999208
vn -0.039389 -0.005723 -0.999208
vn -0.039389 -0.005723 -0.999208
vn -0.039389 -0.005723 -0.999208
vn -0.039389 -0.005723 -0.999208
vn -0.999849 0.016021 0.006750
vn -0.999849 0.016021 0.006750
vn -0.999849 0.016021 0.006750
vn -0.999849 0.016021 0.006750
vn -0.025482 0.020037 0.999474
vn -0.025482 0.020037 0.999474
vn -0.025482 0.020037 0.999474
vn -0.025482 0.020037 0.999474
vn -0.025482 0.020037 0.999474
vn 0.101691 -0.994742 0.012113
vn 0.101691 -0.994742 0.012113
vn 0.101691 -0.994742 0.012113
vn 0.101691 -0.994742 0.012113
vn 0.074966 0.997096 -0.013373
vn 0.074966 0.997096 -0.013373
vn 0.074966 0.997096 -0.013373
vn 0.074966 0.997096 -0.013373
vn 0.672027 -0.740510 0.004868
vn 0.672027 -0.740510 0.004868
vn 0.672027 -0.740510 0.004868
vn 0.672027 -0.740510 0.004868
s off
g pCube4 group1
usemtl initialShadingGroup
f 1/12/1 8/13/2 10/18/3 2/1/4
f 2/1/5 10/18/6 9/10/7 4/2/8 3/11/9
f 3/11/10 4/2/11 6/6/12 5/3/13
f 5/3/14 6/6/15 7/7/16 8/8/17 1/9/18
f 9/14/19 7/17/20 6/15/21 4/16/22
f 5/4/23 1/12/24 2/1/25 3/5/26
f 8/13/27 7/17/28 9/10/29 10/18/30
g default
v -0.359371 -0.789372 -0.658618
v -0.357738 -0.790671 -0.309724
v -0.378329 -0.789997 -0.309625
v -0.377435 -0.762744 -0.309528
v -0.379962 -0.788697 -0.658520
v -0.379068 -0.761445 -0.658422
v -0.368771 -0.761782 -0.658472
v -0.358836 -0.773064 -0.658560
v -0.367139 -0.763082 -0.309578
v -0.357203 -0.774363 -0.309666
vt 0.375000 0.250000
vt 0.625000 0.500000
vt 0.375000 0.750000
vt 0.125000 0.000000
vt 0.125000 0.250000
vt 0.625000 0.750000
vt 0.625000 0.875013
vt 0.524605 1.000000
vt 0.375000 1.000000
vt 0.625000 0.374988
vt 0.375000 0.500000
vt 0.375000 0.000000
vt 0.524605 0.000000
vt 0.749988 0.250000
vt 0.875000 0.000000
vt 0.875000 0.250000
vt 0.749987 0.000000
vt 0.524605 0.250000
vn 0.999452 -0.032761 -0.004800
vn 0.999452 -0.032761 -0.004800
vn 0.999452 -0.032761 -0.004800
vn 0.999452 -0.032761 -0.004800
vn 0.004680 -0.003724 0.999982
vn 0.004680 -0.003724 0.999982
vn 0.004680 -0.003724 0.999982
vn 0.004680 -0.003724 0.999982
vn 0.004680 -0.003724 0.999982
vn -0.999452 0.032761 0.004800
vn -0.999452 0.032761 0.004800
vn -0.999452 0.032761 0.004800
vn -0.999452 0.032761 0.004800
vn -0.004680 0.003725 -0.999982
vn -0.004680 0.003725 -0.999982
vn -0.004680 0.003725 -0.999982
vn -0.004680 0.003725 -0.999982
vn -0.004680 0.003725 -0.999982
vn 0.032780 0.999456 0.003569
vn 0.032780 0.999456 0.003569
vn 0.032780 0.999456 0.003569
vn 0.032780 0.999456 0.003569
vn -0.032780 -0.999456 -0.003569
vn -0.032780 -0.999456 -0.003569
vn -0.032780 -0.999456 -0.003569
vn -0.032780 -0.999456 -0.003569
vn 0.750456 0.660920 -0.001051
vn 0.750456 0.660920 -0.001051
vn 0.750456 0.660920 -0.001051
vn 0.750456 0.660920 -0.001051
s off
g group1 pCube3
usemtl initialShadingGroup
f 11/30/31 18/31/32 20/36/33 12/19/34
f 12/19/35 20/36/36 19/28/37 14/20/38 13/29/39
f 13/29/40 14/20/41 16/24/42 15/21/43
f 15/21/44 16/24/45 17/25/46 18/26/47 11/27/48
f 19/32/49 17/35/50 16/33/51 14/34/52
f 15/22/53 11/30/54 12/19/55 13/23/56
f 18/31/57 17/35/58 19/28/59 20/36/60
g default
v -0.375715 -0.784588 -0.644370
v -0.352987 -0.326648 -0.644370
v -0.352987 -0.326648 -0.658767
v -0.336846 -0.327449 -0.658767
v -0.375715 -0.784588 -0.658767
v -0.359574 -0.785389 -0.658767
v -0.359574 -0.785389 -0.651568
v -0.366763 -0.785033 -0.644370
v -0.336846 -0.327449 -0.651568
v -0.344034 -0.327092 -0.644370
vt 0.375000 0.250000
vt 0.625000 0.500000
vt 0.375000 0.750000
vt 0.125000 0.000000
vt 0.125000 0.250000
vt 0.625000 0.750000
vt 0.625000 0.875012
vt 0.513659 1.000000
vt 0.375000 1.000000
vt 0.625000 0.374988
vt 0.375000 0.500000
vt 0.375000 0.000000
vt 0.513659 0.000000
vt 0.749988 0.250000
vt 0.875000 0.000000
vt 0.875000 0.250000
vt 0.749988 0.000000
vt 0.513658 0.250000
vn 0.000000 0.000000 1.000000
vn 0.000000 0.000000 1.000000
vn 0.000000 0.000000 1.000000
vn 0.000000 0.000000 1.000000
vn 0.049559 0.998771 0.000005
vn 0.049559 0.998771 0.000005
vn 0.049559 0.998771 0.000005
vn 0.049559 0.998771 0.000005
vn 0.049559 0.998771 0.000005
vn 0.000000 0.000000 -1.000000
vn 0.000000 0.000000 -1.000000
vn 0.000000 0.000000 -1.000000
vn 0.000000 0.000000 -1.000000
vn -0.049569 -0.998771 -0.000003
vn -0.049569 -0.998771 -0.000003
vn -0.049569 -0.998771 -0.000003
vn -0.049569 -0.998771 -0.000003
vn -0.049569 -0.998771 -0.000003
vn 0.998771 -0.049570 0.000000
vn 0.998771 -0.049570 0.000000
vn 0.998771 -0.049570 0.000000
vn 0.998771 -0.049570 0.000000
vn -0.998771 0.049570 0.000000
vn -0.998771 0.049570 0.000000
vn -0.998771 0.049570 0.000000
vn -0.998771 0.049570 0.000000
vn 0.706238 -0.035052 0.707106
vn 0.706238 -0.035052 0.707106
vn 0.706238 -0.035052 0.707106
vn 0.706238 -0.035052 0.707106
s off
g group1 pCube1
usemtl initialShadingGroup
f 21/48/61 28/49/62 30/54/63 22/37/64
f 22/37/65 30/54/66 29/46/67 24/38/68 23/47/69
f 23/47/70 24/38/71 26/42/72 25/39/73
f 25/39/74 26/42/75 27/43/76 28/44/77 21/45/78
f 29/50/79 27/53/80 26/51/81 24/52/82
f 25/40/83 21/48/84 22/37/85 23/41/86
f 28/49/87 27/53/88 29/50/89 30/54/90
g default
v -0.375381 -0.787394 -0.307682
v -0.358748 -0.788230 -0.307655
v -0.351382 -0.309612 -0.311893
v -0.334750 -0.310447 -0.311866
v -0.351361 -0.309775 -0.330208
v -0.375359 -0.787557 -0.325997
v -0.343044 -0.310192 -0.330195
v -0.334738 -0.310536 -0.321856
v -0.358737 -0.788318 -0.317644
v -0.367042 -0.787975 -0.325983
vt 0.375000 0.000000
vt 0.375000 0.250000
vt 0.125000 0.000000
vt 0.125000 0.250000
vt 0.625000 0.250000
vt 0.375000 0.500000
vt 0.625000 0.863645
vt 0.625000 1.000000
vt 0.375000 1.000000
vt 0.500013 0.500000
vt 0.375000 0.750000
vt 0.625000 0.000000
vt 0.761355 0.000000
vt 0.761355 0.250000
vt 0.625000 0.386355
vt 0.500012 0.750000
vn -0.001162 0.008872 0.999960
vn -0.001162 0.008872 0.999960
vn -0.001162 0.008872 0.999960
vn -0.001162 0.008872 0.999960
vn 0.050165 0.998702 -0.008804
vn 0.050165 0.998702 -0.008804
vn 0.050165 0.998702 -0.008804
vn 0.050165 0.998702 -0.008804
vn 0.050165 0.998702 -0.008804
vn 0.001162 -0.008872 -0.999960
vn 0.001162 -0.008872 -0.999960
vn 0.001162 -0.008872 -0.999960
vn 0.001162 -0.008872 -0.999960
vn -0.050165 -0.998702 0.008803
vn -0.050165 -0.998702 0.008803
vn -0.050165 -0.998702 0.008803
vn -0.050165 -0.998702 0.008803
vn -0.050165 -0.998702 0.008803
vn 0.998740 -0.050152 0.001605
vn 0.998740 -0.050152 0.001605
vn 0.998740 -0.050152 0.001605
vn 0.998740 -0.050152 0.001605
vn -0.998740 0.050152 -0.001605
vn -0.998740 0.050152 -0.001605
vn -0.998740 0.050152 -0.001605
vn -0.998740 0.050152 -0.001605
vn 0.707038 -0.041736 -0.705943
vn 0.707038 -0.041736 -0.705943
vn 0.707038 -0.041736 -0.705943
vn 0.707038 -0.041736 -0.705943
s off
g group1 pCube2
usemtl initialShadingGroup
f 31/55/91 32/66/92 34/59/93 33/56/94
f 33/56/95 34/59/96 38/69/97 37/64/98 35/60/99
f 35/60/100 37/64/101 40/70/102 36/65/103
f 36/65/104 40/70/105 39/61/106 32/62/107 31/63/108
f 32/66/109 39/67/110 38/68/111 34/59/112
f 36/57/113 31/55/114 33/56/115 35/58/116
f 37/64/117 38/69/118 39/61/119 40/70/120
g default
v -0.345713 -0.325192 -0.327112
v -0.347856 -0.370083 -0.326532
v -0.349998 -0.414974 -0.325951
v -0.352140 -0.459865 -0.325370
v -0.354282 -0.504756 -0.324789
v -0.356424 -0.549647 -0.324209
v -0.358566 -0.594538 -0.323628
v -0.360708 -0.639429 -0.323047
v -0.362850 -0.684320 -0.322466
v -0.364992 -0.729210 -0.321886
v -0.367134 -0.774101 -0.321305
v -0.346323 -0.325595 -0.360500
v -0.348465 -0.370486 -0.359919
v -0.350607 -0.415377 -0.359338
v -0.352749 -0.460268 -0.358758
v -0.354891 -0.505159 -0.358177
v -0.357033 -0.550050 -0.357596
v -0.359175 -0.594941 -0.357016
v -0.361317 -0.639831 -0.356435
v -0.363459 -0.684722 -0.355854
v -0.365601 -0.729613 -0.355273
v -0.367743 -0.774504 -0.354693
v -0.346932 -0.325998 -0.393888
v -0.349074 -0.370889 -0.393307
v -0.351216 -0.415780 -0.392726
v -0.353358 -0.460671 -0.392145
v -0.355500 -0.505562 -0.391565
v -0.357642 -0.550453 -0.390984
v -0.359784 -0.595343 -0.390403
v -0.361927 -0.640234 -0.389823
v -0.364069 -0.685125 -0.389242
v -0.366211 -0.730016 -0.388661
v -0.368353 -0.774907 -0.388080
v -0.347541 -0.326401 -0.427275
v -0.349684 -0.371292 -0.426695
v -0.351826 -0.416183 -0.426114
v -0.353968 -0.461074 -0.425533
v -0.356110 -0.505965 -0.424952
v -0.358252 -0.550855 -0.424372
v -0.360394 -0.595746 -0.423791
v -0.362536 -0.640637 -0.423210
v -0.364678 -0.685528 -0.422629
v -0.366820 -0.730419 -0.422049
v -0.368962 -0.775310 -0.421468
v -0.348151 -0.326804 -0.460663
v -0.350293 -0.371695 -0.460082
v -0.352435 -0.416586 -0.459502
v -0.354577 -0.461476 -0.458921
v -0.356719 -0.506367 -0.458340
v -0.358861 -0.551258 -0.457759
v -0.361003 -0.596149 -0.457179
v -0.363145 -0.641040 -0.456598
v -0.365287 -0.685931 -0.456017
v -0.367429 -0.730822 -0.455436
v -0.369571 -0.775713 -0.454856
v -0.348760 -0.327207 -0.494051
v -0.350902 -0.372098 -0.493470
v -0.353044 -0.416988 -0.492889
v -0.355186 -0.461879 -0.492309
v -0.357328 -0.506770 -0.491728
v -0.359470 -0.551661 -0.491147
v -0.361613 -0.596552 -0.490566
v -0.363755 -0.641443 -0.489986
v -0.365897 -0.686334 -0.489405
v -0.368039 -0.731225 -0.488824
v -0.370181 -0.776116 -0.488243
v -0.349369 -0.327609 -0.527439
v -0.351512 -0.372500 -0.526858
v -0.353654 -0.417391 -0.526277
v -0.355796 -0.462282 -0.525696
v -0.357938 -0.507173 -0.525116
v -0.360080 -0.552064 -0.524535
v -0.362222 -0.596955 -0.523954
v -0.364364 -0.641846 -0.523373
v -0.366506 -0.686737 -0.522793
v -0.368648 -0.731628 -0.522212
v -0.370790 -0.776518 -0.521631
v -0.349979 -0.328012 -0.560826
v -0.352121 -0.372903 -0.560246
v -0.354263 -0.417794 -0.559665
v -0.356405 -0.462685 -0.559084
v -0.358547 -0.507576 -0.558503
v -0.360689 -0.552467 -0.557923
v -0.362831 -0.597358 -0.557342
v -0.364973 -0.642249 -0.556761
v -0.367115 -0.687140 -0.556180
v -0.369257 -0.732030 -0.555600
v -0.371399 -0.776921 -0.555019
v -0.350588 -0.328415 -0.594214
v -0.352730 -0.373306 -0.593633
v -0.354872 -0.418197 -0.593053
v -0.357014 -0.463088 -0.592472
v -0.359156 -0.507979 -0.591891
v -0.361298 -0.552870 -0.591310
v -0.363441 -0.597761 -0.590730
v -0.365583 -0.642651 -0.590149
v -0.367725 -0.687542 -0.589568
v -0.369867 -0.732433 -0.588987
v -0.372009 -0.777324 -0.588407
v -0.351197 -0.328818 -0.627602
v -0.353340 -0.373709 -0.627021
v -0.355482 -0.418600 -0.626440
v -0.357624 -0.463491 -0.625860
v -0.359766 -0.508382 -0.625279
v -0.361908 -0.553273 -0.624698
v -0.364050 -0.598163 -0.624117
v -0.366192 -0.643054 -0.623537
v -0.368334 -0.687945 -0.622956
v -0.370476 -0.732836 -0.622375
v -0.372618 -0.777727 -0.621794
v -0.351807 -0.329221 -0.660989
v -0.353949 -0.374112 -0.660409
v -0.356091 -0.419003 -0.659828
v -0.358233 -0.463894 -0.659247
v -0.360375 -0.508784 -0.658666
v -0.362517 -0.553675 -0.658086
v -0.364659 -0.598566 -0.657505
v -0.366801 -0.643457 -0.656924
v -0.368943 -0.688348 -0.656344
v -0.371085 -0.733239 -0.655763
v -0.373227 -0.778130 -0.655182
vt 0.000000 0.000000
vt 0.100000 0.000000
vt 0.200000 0.000000
vt 0.300000 0.000000
vt 0.400000 0.000000
vt 0.500000 0.000000
vt 0.600000 0.000000
vt 0.700000 0.000000
vt 0.800000 0.000000
vt 0.900000 0.000000
vt 1.000000 0.000000
vt 0.000000 0.100000
vt 0.100000 0.100000
vt 0.200000 0.100000
vt 0.300000 0.100000
vt 0.400000 0.100000
vt 0.500000 0.100000
vt 0.600000 0.100000
vt 0.700000 0.100000
vt 0.800000 0.100000
vt 0.900000 0.100000
vt 1.000000 0.100000
vt 0.000000 0.200000
vt 0.100000 0.200000
vt 0.200000 0.200000
vt 0.300000 0.200000
vt 0.400000 0.200000
vt 0.500000 0.200000
vt 0.600000 0.200000
vt 0.700000 0.200000
vt 0.800000 0.200000
vt 0.900000 0.200000
vt 1.000000 0.200000
vt 0.000000 0.300000
vt 0.100000 0.300000
vt 0.200000 0.300000
vt 0.300000 0.300000
vt 0.400000 0.300000
vt 0.500000 0.300000
vt 0.600000 0.300000
vt 0.700000 0.300000
vt 0.800000 0.300000
vt 0.900000 0.300000
vt 1.000000 0.300000
vt 0.000000 0.400000
vt 0.100000 0.400000
vt 0.200000 0.400000
vt 0.300000 0.400000
vt 0.400000 0.400000
vt 0.500000 0.400000
vt 0.600000 0.400000
vt 0.700000 0.400000
vt 0.800000 0.400000
vt 0.900000 0.400000
vt 1.000000 0.400000
vt 0.000000 0.500000
vt 0.100000 0.500000
vt 0.200000 0.500000
vt 0.300000 0.500000
vt 0.400000 0.500000
vt 0.500000 0.500000
vt 0.600000 0.500000
vt 0.700000 0.500000
vt 0.800000 0.500000
vt 0.900000 0.500000
vt 1.000000 0.500000
vt 0.000000 0.600000
vt 0.100000 0.600000
vt 0.200000 0.600000
vt 0.300000 0.600000
vt 0.400000 0.600000
vt 0.500000 0.600000
vt 0.600000 0.600000
vt 0.700000 0.600000
vt 0.800000 0.600000
vt 0.900000 0.600000
vt 1.000000 0.600000
vt 0.000000 0.700000
vt 0.100000 0.700000
vt 0.200000 0.700000
vt 0.300000 0.700000
vt 0.400000 0.700000
vt 0.500000 0.700000
vt 0.600000 0.700000
vt 0.700000 0.700000
vt 0.800000 0.700000
vt 0.900000 0.700000
vt 1.000000 0.700000
vt 0.000000 0.800000
vt 0.100000 0.800000
vt 0.200000 0.800000
vt 0.300000 0.800000
vt 0.400000 0.800000
vt 0.500000 0.800000
vt 0.600000 0.800000
vt 0.700000 0.800000
vt 0.800000 0.800000
vt 0.900000 0.800000
vt 1.000000 0.800000
vt 0.000000 0.900000
vt 0.100000 0.900000
vt 0.200000 0.900000
vt 0.300000 0.900000
vt 0.400000 0.900000
vt 0.500000 0.900000
vt 0.600000 0.900000
vt 0.700000 0.900000
vt 0.800000 0.900000
vt 0.900000 0.900000
vt 1.000000 0.900000
vt 0.000000 1.000000
vt 0.100000 1.000000
vt 0.200000 1.000000
vt 0.300000 1.000000
vt 0.400000 1.000000
vt 0.500000 1.000000
vt 0.600000 1.000000
vt 0.700000 1.000000
vt 0.800000 1.000000
vt 0.900000 1.000000
vt 1.000000 1.000000
vn 0.998697 -0.047883 -0.017649
vn 0.998697 -0.047883 -0.017649
vn 0.998697 -0.047883 -0.017649
vn 0.998697 -0.047883 -0.017649
vn 0.998697 -0.047883 -0.017649
vn 0.998697 -0.047883 -0.017649
vn 0.998697 -0.047883 -0.017649
vn 0.998697 -0.047883 -0.017649
vn 0.998697 -0.047883 -0.017649
vn 0.998697 -0.047883 -0.017649
vn 0.998697 -0.047883 -0.017649
vn 0.998697 -0.047883 -0.017649
vn 0.998697 -0.047883 -0.017649
vn 0.998697 -0.047883 -0.017649
vn 0.998697 -0.047883 -0.017649
vn 0.998697 -0.047883 -0.017649
vn 0.998697 -0.047883 -0.017649
vn 0.998697 -0.047883 -0.017649
vn 0.998697 -0.047883 -0.017649
vn 0.998697 -0.047883 -0.017649
vn 0.998697 -0.047883 -0.017649
vn 0.998697 -0.047883 -0.017649
vn 0.998697 -0.047883 -0.017649
vn 0.998697 -0.047883 -0.017649
vn 0.998697 -0.047883 -0.017649
vn 0.998697 -0.047883 -0.017649
vn 0.998697 -0.047883 -0.017649
vn 0.998697 -0.047883 -0.017649
vn 0.998697 -0.047883 -0.017649
vn 0.998697 -0.047883 -0.017649
vn 0.998697 -0.047883 -0.017649
vn 0.998697 -0.047883 -0.017649
vn 0.998697 -0.047883 -0.017649
vn 0.998697 -0.047883 -0.017649
vn 0.998697 -0.047883 -0.017649
vn 0.998697 -0.047883 -0.017649
vn 0.998697 -0.047883 -0.017649
vn 0.998697 -0.047883 -0.017649
vn 0.998697 -0.047883 -0.017649
vn 0.998697 -0.047883 -0.017649
vn 0.998697 -0.047883 -0.017649
vn 0.998697 -0.047883 -0.017649
vn 0.998697 -0.047883 -0.017649
vn 0.998697 -0.047883 -0.017649
vn 0.998697 -0.047883 -0.017649
vn 0.998697 -0.047883 -0.017649
vn 0.998697 -0.047883 -0.017649
vn 0.998697 -0.047883 -0.017649
vn 0.998697 -0.047883 -0.017649
vn 0.998697 -0.047883 -0.017649
vn 0.998697 -0.047883 -0.017649
vn 0.998697 -0.047883 -0.017649
vn 0.998697 -0.047883 -0.017649
vn 0.998697 -0.047883 -0.017649
vn 0.998697 -0.047883 -0.017649
vn 0.998697 -0.047883 -0.017649
vn 0.998697 -0.047883 -0.017649
vn 0.998697 -0.047883 -0.017649
vn 0.998697 -0.047883 -0.017649
vn 0.998697 -0.047883 -0.017649
vn 0.998697 -0.047883 -0.017649
vn 0.998697 -0.047883 -0.017649
vn 0.998697 -0.047883 -0.017649
vn 0.998697 -0.047883 -0.017649
vn 0.998697 -0.047883 -0.017649
vn 0.998697 -0.047883 -0.017649
vn 0.998697 -0.047883 -0.017649
vn 0.998697 -0.047883 -0.017649
vn 0.998697 -0.047883 -0.017649
vn 0.998697 -0.047883 -0.017649
vn 0.998697 -0.047883 -0.017649
vn 0.998697 -0.047883 -0.017649
vn 0.998697 -0.047883 -0.017649
vn 0.998697 -0.047883 -0.017649
vn 0.998697 -0.047883 -0.017649
vn 0.998697 -0.047883 -0.017649
vn 0.998697 -0.047883 -0.017649
vn 0.998697 -0.047883 -0.017649
vn 0.998697 -0.047883 -0.017649
vn 0.998697 -0.047883 -0.017649
vn 0.998697 -0.047883 -0.017649
vn 0.998697 -0.047883 -0.017649
vn 0.998697 -0.047883 -0.017649
vn 0.998697 -0.047883 -0.017649
vn 0.998697 -0.047883 -0.017649
vn 0.998697 -0.047883 -0.017649
vn 0.998697 -0.047883 -0.017649
vn 0.998697 -0.047883 -0.017649
vn 0.998697 -0.047883 -0.017649
vn 0.998697 -0.047883 -0.017649
vn 0.998697 -0.047883 -0.017649
vn 0.998697 -0.047883 -0.017649
vn 0.998697 -0.047883 -0.017649
vn 0.998697 -0.047883 -0.017649
vn 0.998697 -0.047883 -0.017649
vn 0.998697 -0.047883 -0.017649
vn 0.998697 -0.047883 -0.017649
vn 0.998697 -0.047883 -0.017649
vn 0.998697 -0.047883 -0.017649
vn 0.998697 -0.047883 -0.017649
vn 0.998697 -0.047883 -0.017649
vn 0.998697 -0.047883 -0.017649
vn 0.998697 -0.047883 -0.017649
vn 0.998697 -0.047883 -0.017649
vn 0.998697 -0.047883 -0.017649
vn 0.998697 -0.047883 -0.017649
vn 0.998697 -0.047883 -0.017649
vn 0.998697 -0.047883 -0.017649
vn 0.998697 -0.047883 -0.017649
vn 0.998697 -0.047883 -0.017649
vn 0.998697 -0.047883 -0.017649
vn 0.998697 -0.047883 -0.017649
vn 0.998697 -0.047883 -0.017649
vn 0.998697 -0.047883 -0.017649
vn 0.998697 -0.047883 -0.017649
vn 0.998697 -0.047883 -0.017649
vn 0.998697 -0.047883 -0.017649
vn 0.998697 -0.047883 -0.017649
vn 0.998697 -0.047883 -0.017649
vn 0.998697 -0.047883 -0.017649
vn 0.998697 -0.047883 -0.017649
s 1
g group1 pPlane1
usemtl initialShadingGroup
f 41/71/121 42/72/122 53/83/123 52/82/124
f 42/72/122 43/73/125 54/84/126 53/83/123
f 43/73/125 44/74/127 55/85/128 54/84/126
f 44/74/127 45/75/129 56/86/130 55/85/128
f 45/75/129 46/76/131 57/87/132 56/86/130
f 46/76/131 47/77/133 58/88/134 57/87/132
f 47/77/133 48/78/135 59/89/136 58/88/134
f 48/78/135 49/79/137 60/90/138 59/89/136
f 49/79/137 50/80/139 61/91/140 60/90/138
f 50/80/139 51/81/141 62/92/142 61/91/140
f 52/82/124 53/83/123 64/94/143 63/93/144
f 53/83/123 54/84/126 65/95/145 64/94/143
f 54/84/126 55/85/128 66/96/146 65/95/145
f 55/85/128 56/86/130 67/97/147 66/96/146
f 56/86/130 57/87/132 68/98/148 67/97/147
f 57/87/132 58/88/134 69/99/149 68/98/148
f 58/88/134 59/89/136 70/100/150 69/99/149
f 59/89/136 60/90/138 71/101/151 70/100/150
f 60/90/138 61/91/140 72/102/152 71/101/151
f 61/91/140 62/92/142 73/103/153 72/102/152
f 63/93/144 64/94/143 75/105/154 74/104/155
f 64/94/143 65/95/145 76/106/156 75/105/154
f 65/95/145 66/96/146 77/107/157 76/106/156
f 66/96/146 67/97/147 78/108/158 77/107/157
f 67/97/147 68/98/148 79/109/159 78/108/158
f 68/98/148 69/99/149 80/110/160 79/109/159
f 69/99/149 70/100/150 81/111/161 80/110/160
f 70/100/150 71/101/151 82/112/162 81/111/161
f 71/101/151 72/102/152 83/113/163 82/112/162
f 72/102/152 73/103/153 84/114/164 83/113/163
f 74/104/155 75/105/154 86/116/165 85/115/166
f 75/105/154 76/106/156 87/117/167 86/116/165
f 76/106/156 77/107/157 88/118/168 87/117/167
f 77/107/157 78/108/158 89/119/169 88/118/168
f 78/108/158 79/109/159 90/120/170 89/119/169
f 79/109/159 80/110/160 91/121/171 90/120/170
f 80/110/160 81/111/161 92/122/172 91/121/171
f 81/111/161 82/112/162 93/123/173 92/122/172
f 82/112/162 83/113/163 94/124/174 93/123/173
f 83/113/163 84/114/164 95/125/175 94/124/174
f 85/115/166 86/116/165 97/127/176 96/126/177
f 86/116/165 87/117/167 98/128/178 97/127/176
f 87/117/167 88/118/168 99/129/179 98/128/178
f 88/118/168 89/119/169 100/130/180 99/129/179
f 89/119/169 90/120/170 101/131/181 100/130/180
f 90/120/170 91/121/171 102/132/182 101/131/181
f 91/121/171 92/122/172 103/133/183 102/132/182
f 92/122/172 93/123/173 104/134/184 103/133/183
f 93/123/173 94/124/174 105/135/185 104/134/184
f 94/124/174 95/125/175 106/136/186 105/135/185
f 96/126/177 97/127/176 108/138/187 107/137/188
f 97/127/176 98/128/178 109/139/189 108/138/187
f 98/128/178 99/129/179 110/140/190 109/139/189
f 99/129/179 100/130/180 111/141/191 110/140/190
f 100/130/180 101/131/181 112/142/192 111/141/191
f 101/131/181 102/132/182 113/143/193 112/142/192
f 102/132/182 103/133/183 114/144/194 113/143/193
f 103/133/183 104/134/184 115/145/195 114/144/194
f 104/134/184 105/135/185 116/146/196 115/145/195
f 105/135/185 106/136/186 117/147/197 116/146/196
f 107/137/188 108/138/187 119/149/198 118/148/199
f 108/138/187 109/139/189 120/150/200 119/149/198
f 109/139/189 110/140/190 121/151/201 120/150/200
f 110/140/190 111/141/191 122/152/202 121/151/201
f 111/141/191 112/142/192 123/153/203 122/152/202
f 112/142/192 113/143/193 124/154/204 123/153/203
f 113/143/193 114/144/194 125/155/205 124/154/204
f 114/144/194 115/145/195 126/156/206 125/155/205
f 115/145/195 116/146/196 127/157/207 126/156/206
f 116/146/196 117/147/197 128/158/208 127/157/207
f 118/148/199 119/149/198 130/160/209 129/159/210
f 119/149/198 120/150/200 131/161/211 130/160/209
f 120/150/200 121/151/201 132/162/212 131/161/211
f 121/151/201 122/152/202 133/163/213 132/162/212
f 122/152/202 123/153/203 134/164/214 133/163/213
f 123/153/203 124/154/204 135/165/215 134/164/214
f 124/154/204 125/155/205 136/166/216 135/165/215
f 125/155/205 126/156/206 137/167/217 136/166/216
f 126/156/206 127/157/207 138/168/218 137/167/217
f 127/157/207 128/158/208 139/169/219 138/168/218
f 129/159/210 130/160/209 141/171/220 140/170/221
f 130/160/209 131/161/211 142/172/222 141/171/220
f 131/161/211 132/162/212 143/173/223 142/172/222
f 132/162/212 133/163/213 144/174/224 143/173/223
f 133/163/213 134/164/214 145/175/225 144/174/224
f 134/164/214 135/165/215 146/176/226 145/175/225
f 135/165/215 136/166/216 147/177/227 146/176/226
f 136/166/216 137/167/217 148/178/228 147/177/227
f 137/167/217 138/168/218 149/179/229 148/178/228
f 138/168/218 139/169/219 150/180/230 149/179/229
f 140/170/221 141/171/220 152/182/231 151/181/232
f 141/171/220 142/172/222 153/183/233 152/182/231
f 142/172/222 143/173/223 154/184/234 153/183/233
f 143/173/223 144/174/224 155/185/235 154/184/234
f 144/174/224 145/175/225 156/186/236 155/185/235
f 145/175/225 146/176/226 157/187/237 156/186/236
f 146/176/226 147/177/227 158/188/238 157/187/237
f 147/177/227 148/178/228 159/189/239 158/188/238
f 148/178/228 149/179/229 160/190/240 159/189/239
f 149/179/229 150/180/230 161/191/241 160/190/240
